# xmcd
#
# Track frame offsets:
#	150
#	18360
#	41171
#	60771
#	77929
#	91725
#	115621
#	133087
#	152600
#	171368
#	204510
#	227151
#	246595
#
# Disc length: 3566 seconds
#
# Revision: 0
# Processed by: cddbd v1.5.1PL0 Copyright (c) Steve Scherf et al.
# Submitted via: dBpowerAMP V4.0
#
DISCID=a40dec0d
DTITLE=Reinhard Fissler - Was bleibt
DYEAR=2005
DGENRE=
TTITLE0=7 Days
TTITLE1=Du komm her
TTITLE2=Feuer und Regen
TTITLE3=Fire and Rain
TTITLE4=Georgia
TTITLE5=Imagine
TTITLE6=Just one friend
TTITLE7=Klassenclown
TTITLE8=Pimpers Paradise
TTITLE9=Südpol
TTITLE10=Was bleibt
TTITLE11=You'll get over it
TTITLE12=Your love
EXTD=
EXTT0=
EXTT1=
EXTT2=
EXTT3=
EXTT4=
EXTT5=
EXTT6=
EXTT7=
EXTT8=
EXTT9=
EXTT10=
EXTT11=
EXTT12=
PLAYORDER=
